<?xml version="1.0" encoding="UTF-8"?>
<svg id="Layer_1" xmlns="http://www.w3.org/2000/svg" version="1.1" viewBox="130 884 822 713">
  <!-- White version of SCC logo -->
  <defs>
    <style>
      .wh {
        fill: #ffffff;
      }
    </style>
  </defs>
  <path class="wh" d="M591.38,1567.02c-1.62-1.35-2.99-2.72-4.52-3.89-16.27-12.46-33.84-22.78-52.48-31.21-19.28-8.72-39.32-15.2-60.13-19.14-8.84-1.67-17.73-2.89-26.68-3.85-13.4-1.44-26.81-1.47-40.21-.9-10.91.47-21.59-.62-32.28-2.47-15.98-2.76-31.12-7.97-45.44-15.53-11.38-6.01-21.78-13.37-31.33-22.04-8.55-7.77-15.99-16.44-22.5-25.92-6.88-10-12.31-20.78-16.67-32.12-4.25-11.04-7.11-22.43-8.96-34.07-.84-5.34-1.09-10.77-1.46-16.18-.29-4.39-.54-8.79-.48-13.18.19-12.5,1.63-24.87,4.34-37.09,3.55-16.01,9.31-31.18,17.22-45.54,4.91-8.91,10.63-17.28,17.26-25,10.48-12.2,22.27-22.91,35.91-31.51,17.26-10.89,35.92-18.27,55.93-22.2,8.33-1.64,16.69-3.02,25.22-3.15,6.55-.1,13.1-.56,19.65-.39,5.19.13,10.36.96,15.54,1.46.59.06,1.19,0,1.99,0,.66-3.62,1.29-7.22,1.98-10.81,2.39-12.42,6.28-24.37,11.27-35.97,6.08-14.11,14.04-27.1,23.64-39.06,12.04-15,26.34-27.5,42.69-37.61,15.71-9.72,32.58-16.79,50.51-21.24,5.84-1.45,11.78-2.86,17.75-3.32,6.29-.48,12.68.1,19.01.4,8.21.39,16.21,2.16,24.1,4.35,17.41,4.82,33.23,12.74,47.09,24.42,10.75,9.06,19.9,19.48,27.11,31.57,7.31,12.26,12.19,25.45,15.14,39.39,2.69,12.72,2.96,25.6,2.41,38.52-.13,3.04-.74,6.06-1.19,9.53-.56-.64-.95-.93-1.12-1.31-6.55-14.93-14.93-28.66-25.81-40.89-9.23-10.39-19.77-19.08-32.14-25.35-9.27-4.7-19.11-7.61-29.65-8.27-16.96-1.08-32.33,3.73-46.91,11.77-9.94,5.48-18.75,12.5-26.65,20.61-8.69,8.92-16.02,18.89-22.05,29.8-7.03,12.72-12.14,26.17-15.3,40.36-1.78,7.99-3.25,16.03-3.56,24.23-.22,5.83-.35,11.65-.53,17.48,0,.29-.14.58-.26,1.03-.79,0-1.58.1-2.34-.02-7.57-1.13-15.12-2.43-22.71-3.38-3.34-.42-6.76-.18-10.15-.2-4.07-.02-8.15-.15-12.21.06-8.9.46-17.69,1.76-26.36,3.82-12.3,2.93-24.14,7.14-35.36,13.03-10.12,5.3-19.5,11.65-28.11,19.18-7.37,6.45-13.91,13.62-19.49,21.63-8.24,11.83-14.13,24.69-16.12,39.11-.53,3.84-1.15,7.73-1.03,11.58.34,10.81,2.48,21.31,6.62,31.35,5.4,13.11,13.06,24.77,22.5,35.34,10.62,11.89,22.98,21.55,36.59,29.71,6.96,4.17,14.21,7.77,21.74,10.74,3.11,1.22,6.49,1.76,9.78,2.5,20.82,4.68,41.09,11.14,60.87,19.11,7.88,3.17,15.73,6.48,23.34,10.23,10.8,5.33,20.49,12.33,29.41,20.47,15.44,14.09,27.13,30.86,36.38,49.7-.17.25-.41.3-.82.28Z"/>
  <path class="wh" d="M921.21,1118.2c-.23,10.48-2.12,20.73-4.54,30.89-3.22,13.51-8.06,26.44-14.47,38.75-5.93,11.4-12.95,22.1-21.34,31.85-3.34,3.88-6.67,7.79-10.34,11.35-12.34,11.97-25.99,22.18-41.18,30.32-13.25,7.1-27.08,12.61-41.61,16.41-1.16.3-2.33.58-3.77.94.35.82.56,1.47.9,2.04,5.61,9.54,13.46,16.37,24.07,19.88,15.42,5.1,30.57-.39,39.53-13.12,2.96-4.2,5.23-8.76,7.12-14.18,1.12,5.47,1.05,10.41.77,15.31-.27,4.78-.97,9.54-1.66,14.29-1.99,13.65-6.63,26.38-13.7,38.2-7.86,13.13-18.28,23.9-30.97,32.41-12.78,8.57-26.88,13.79-42.08,16.21-6.49,1.03-13,1.51-19.53,1.6-4.37.06-8.74-.69-13.12-1.02-6.42-.49-12.81-.74-19.29-.24-7.88.6-15.66,1.59-23.33,3.42-14.19,3.38-27.43,9.05-39.49,17.25-4.98,3.39-9.56,7.38-14.16,11.28-7.23,6.13-13.12,13.5-18.52,21.23-5.29,7.58-9.63,15.72-13.35,24.19-5.74,13.1-9.61,26.76-12.11,40.81-.73,4.12-1.02,8.31-1.55,12.47-.19,1.5-.46,2.98-1.21,4.46-.42-5.98-1.05-11.96-1.2-17.95-.18-7.38-.2-14.78.15-22.15.29-6.21.99-12.43,1.9-18.58,1.36-9.2,3.28-18.3,5.89-27.26,5.29-18.13,13.03-35.11,23.62-50.77,7.56-11.18,16.32-21.32,26.31-30.36,9.67-8.75,20.2-16.36,31.59-22.77,18.84-10.61,38.99-17.51,60.23-21.25,5.82-1.03,11.76-1.41,17.64-2.1,1.8-.21,3.6-.48,5.53-.74-.46-5.17-1.57-10.03-3-14.8-2.77-9.24-6.92-17.73-13.89-24.64-5.82-5.76-12.83-8.99-20.86-10.23-11.86-1.83-22.99.84-33.72,5.61-11.89,5.28-21.98,13.11-30.71,22.67-5.75,6.29-10.72,13.19-14.84,20.67-.54.98-1.14,1.93-2.05,3.47-.53-2.52-.31-4.52-.08-6.41,1.03-8.63,2.62-17.15,5.18-25.5,4.07-13.27,10.12-25.49,18.53-36.51,10.06-13.19,22.66-23.35,37.52-30.62,10.82-5.29,22.27-8.61,34.27-10.19,7.45-.98,14.91-1.33,22.36-.92,6.32.35,12.62,1.19,18.97,1.14,16.08-.12,31.47-3.38,46.15-9.99,13.79-6.21,25.89-14.82,36.72-25.35,8.86-8.61,16.72-18.04,23.59-28.27,7.38-10.99,13.7-22.58,19.16-34.67,4.51-10,8.27-20.26,11.82-30.69,1.46,5.43,1.92,10.97,2.49,16.69.18.18.35.4.3.81,0,2.12.03,3.83.07,5.53-.03,3.9-.07,7.8-.33,12.17-.29,2.63-.34,4.81-.39,6.98Z"/>
  <path class="wh" d="M417.53,914.92c3.14,1.5,6.47,2.91,8.42,5.89,1.94,2.97,3.55,6.21,4.95,9.48,6.43,15.06,12.78,30.15,19.03,45.29,1.16,2.81,2.38,5.85,2.42,8.8.08,6.47-2.44,12.07-8.14,15.61-10.01,6.22-22.19,2.05-26.72-8.83-6.88-16.54-13.85-33.03-20.86-49.51-2.15-5.06-3.05-10.1-1.18-15.44,1.94-5.54,5.87-8.97,11.62-11.14,1.06-.18,1.73-.2,2.53-.26.3-.11.42-.23.5-.4,1.24-.01,2.49-.02,4.07.09.48.24.64.31,1.07.35.93.02,1.6.04,2.28.06Z"/>
  <path class="wh" d="M160.74,1100.76c.69-1.35,1.3-2.75,2.08-4.06,5.07-8.55,16.92-11.6,25.7-5.41,5.6,3.95,11.11,8.04,16.64,12.1,9,6.59,17.92,13.3,27.02,19.76,5.05,3.59,8.79,12.5,5.56,20.74-4.26,10.86-17.62,14.59-26.84,8.11-7.03-4.94-13.91-10.11-20.86-15.17-7.37-5.36-14.72-10.74-22.11-16.07-3.27-2.36-5.55-5.39-7-9.56-.33-1.22-.5-2.08-.66-2.94-.02-1.28-.05-2.55.1-4.28.24-1.37.31-2.29.39-3.21Z"/>
  <path class="wh" d="M921.34,1118.17c-.07-2.14-.02-4.31.21-6.66.18-.18.25-.28.24.02.05,2.2.11,4.1.17,5.99-.02.1-.04.2-.15.43-.08.13-.34.18-.46.21Z"/>
  <path class="wh" d="M922.09,1117.32c-.2-1.69-.26-3.59-.25-5.77.17,1.67.28,3.62.25,5.77Z"/>
  <path class="wh" d="M922.08,1098.86c-.18-1.51-.22-3.22-.19-5.21.16,1.48.25,3.25.19,5.21Z"/>
  <path class="wh" d="M160.71,1100.63c-.04,1.05-.11,1.97-.32,3.07-.18-.88-.23-1.94-.21-3.26.28-.24.41-.13.52.19Z"/>
  <path class="wh" d="M417.66,914.89c-.81.01-1.49,0-2.41-.15-.25-.12-.23-.37-.23-.37.87-.03,1.73-.05,2.85,0,.22.28.12.42-.21.52Z"/>
  <path class="wh" d="M160.2,1108.51c.22.6.39,1.46.56,2.55,0,.23-.23.34-.37.32-.17-.88-.21-1.75-.19-2.87Z"/>
  <path class="wh" d="M409.48,914.86c-.67.02-1.35.04-2.27.06-.45,0-.61-.07-.8-.34.81-.17,1.67-.22,2.8-.11.27.15.28.39.28.39Z"/>
  <path class="wh" d="M414.85,914.33c.17.04.15.28.15.4-.18.08-.34,0-.56-.21.03-.15.14-.19.41-.2Z"/>
  <path class="wh" d="M409.6,914.81c-.13.04-.13-.2-.14-.32.1-.15.21-.18.48-.14.08.23-.04.35-.34.46Z"/>
  <path class="wh" d="M764.17,1136.73c2.31-10.88,8.29-18.66,18.09-23.33,10.53-5.02,24.83-3.43,34.02,4.67,6.27,5.53,10.14,12.34,11.09,20.57.94,8.21-.97,15.9-5.92,22.65-4.94,6.75-11.6,11.01-19.79,12.45-14.31,2.52-27.2-3.73-34.07-15.98-2.47-4.39-3.57-9.14-3.95-14.06-.17-2.21.31-4.47.52-6.97Z"/>
  <path class="wh" d="M682.24,948.16c2.5-5.97,4.97-11.71,7.32-17.49,3.06-7.52,9.99-11.93,18.17-11.44,6.87.42,13.79,5.01,16,13.51,1.04,3.97.61,7.94-.96,11.74-2.18,5.3-4.43,10.57-6.64,15.86-4.97,11.9-9.96,23.78-14.88,35.7-3.01,7.29-8.56,11.33-16.23,11.65-9.85.4-16.98-6.65-18.29-14.86-.66-4.11.13-7.84,1.71-11.59,4.62-10.93,9.15-21.91,13.79-33.08Z"/>
  <path class="wh" d="M307.36,1056.41c-8.44-9.89-16.68-19.66-25.01-29.35-6.85-7.96-5.48-21.72,4.62-27.39,6.62-3.72,15.43-3.24,21.03,2.46,3.87,3.93,7.41,8.19,11,12.39,5.12,5.98,10.11,12.07,15.23,18.05,7.36,8.6,4.87,25.35-9.5,28.83-6.61,1.6-12.31-.23-17.35-4.99Z"/>
  <path class="wh" d="M578.11,951.84c0,6.15.07,11.99-.02,17.83-.1,5.94-2.24,11.05-7.03,14.69-10.62,8.07-24.98,2.54-28.32-9.46-.62-2.23-.78-4.64-.8-6.97-.08-10.35-.08-20.7-.01-31.05.03-4.66.76-9.2,3.77-13,4.62-5.82,10.7-8.18,17.94-6.7,7.67,1.57,12.36,6.44,13.94,14.13.39,1.88.48,3.85.51,5.78.07,4.81.02,9.63.02,14.75Z"/>
</svg>
